Coordinates
version=1
nRows=14
nColumns=33
inDegrees=yes

Units are S.I. units (second, meters, Newtons, ...)
Angles are in degrees.

endheader
time	ground_thorax_rot_x	ground_thorax_rot_y	ground_thorax_rot_z	ground_thorax_tx	ground_thorax_ty	ground_thorax_tz	clav_prot_r	clav_elev_r	scapula_abduction_r	scapula_elevation_r	scapula_upward_rot_r	scapula_winging_r	shoulder_elv_r	plane_of_elev_r	axial_rot_r	elbow_flexion_r	pro_sup_r	wrist_flex_r	wrist_dev_r	clav_prot_l	clav_elev_l	scapula_abduction_l	scapula_elevation_l	scapula_upward_rot_l	scapula_winging_l	shoulder_elv_l	plane_of_elev_l	axial_rot_l	elbow_flexion_l	pro_sup_l	wrist_flex_l	wrist_dev_l
      2.16000000	     28.03602624	     30.35815481	     43.61801552	     63.71804799	    784.25765307	    -40.54198556	     -2.28543497	     43.57804445	     44.03919710	     45.00000000	     12.76091788	  -2289.71898534	  -2270.88967694	    142.84791407	   -179.99999979	   1426.79423085	     64.47282867	     18.31734151	     14.39978617	    -14.12840405	    -45.00000000	    -36.15031411	     45.00000000	    -45.00000000	  -2061.48393034	    435.45975195	     26.27539737	     34.30884803	   1429.96172773	   -316.98322366	     11.69184283	    -15.89685660
      2.17000000	     28.17943214	     30.40368377	     43.42809119	     63.80138273	    783.44747018	    -40.46313179	     -2.15278473	     43.51841581	     43.96867880	     45.00000000	     12.67671827	  -2289.63610870	  -2270.95708711	    142.92182773	   -179.99999979	   1426.80933165	     64.71708872	     18.04238892	     13.93653265	    -13.63756375	    -45.00000000	    -35.99442542	     45.00000000	    -45.00000000	  -2061.80066369	    435.46651433	     25.93219730	     33.45672954	   1430.05112243	   -316.87861832	     11.45032411	    -15.94635618
      2.18000000	     28.00699669	     30.62256490	     43.60040735	     63.78074908	    782.69124612	    -40.39668707	     -2.21950679	     43.76543154	     43.84050873	     45.00000000	     12.10884275	  -2289.43904319	  -2270.82500345	    143.02814307	   -179.99999979	   1426.89103683	     64.99122136	     18.50128527	     14.54353505	    -14.29929730	    -45.00000000	    -36.25917856	     45.00000000	    -45.00000000	  -2061.11191009	    435.35519779	     26.33229184	     33.52501943	   1429.97507265	   -316.70307905	     11.90029375	    -15.98908477
      2.19000000	     28.18190004	     30.73286818	     43.54188266	     63.65496720	    781.97860431	    -40.34420857	     -1.96141839	     43.75385835	     43.78095105	     45.00000000	     11.89155041	  -2289.26226599	  -2270.79867377	    143.02433934	   -179.99999979	   1426.93079556	     65.26354323	     18.35558812	     14.08600951	    -13.83846366	    -45.00000000	    -35.97568075	     45.00000000	    -45.00000000	  -2061.46337521	    435.40562743	     25.88317513	     32.92554563	   1429.98278330	   -316.56366601	     11.63320527	    -16.05852602
      2.20000000	     28.35643281	     30.73149483	     43.24332834	     63.42446141	    781.32368003	    -40.30806871	     -2.00977003	     43.76509455	     43.52477167	     45.00000000	     11.47802970	  -2288.85087160	  -2271.04714415	    143.25289192	   -179.99999979	   1427.06159245	     65.58367020	     18.10316979	     13.98925827	    -14.07196127	    -45.00000000	    -36.02923359	     45.00000000	    -45.00000000	  -2061.31712106	    435.17651109	     25.96057717	     32.55661454	   1430.13191220	   -316.41432272	     11.51257562	    -15.88361507
      2.21000000	     28.23871074	     30.92913047	     43.44188549	     63.08964674	    780.72498900	    -40.28873244	     -1.84658246	     43.91322892	     43.59546607	     45.00000000	     11.26380713	  -2288.91096580	  -2270.71464612	    143.23287685	   -179.99999979	   1426.99892146	     65.82492211	     18.56495678	     14.02967673	    -13.90158153	    -45.00000000	    -35.88388953	     45.00000000	    -45.00000000	  -2061.37674157	    435.45246822	     25.69181065	     32.16734082	   1429.99712283	   -316.28280644	     11.63012741	    -16.17350045
      2.22000000	     28.31322306	     31.04166546	     43.34378432	     62.65014399	    780.18138200	    -40.28637944	     -1.77621455	     43.92095231	     43.37634666	     45.00000000	     10.85603872	  -2288.59637521	  -2270.81461994	    143.32100095	   -179.99999979	   1427.18011985	     66.17624231	     18.36158760	     13.95812287	    -13.99735900	    -45.00000000	    -35.97567859	     45.00000000	    -45.00000000	  -2061.11908244	    435.19155796	     25.78576330	     31.84312311	   1430.05203764	   -316.08126416	     11.57866474	    -15.99314029
      2.23000000	     28.51210474	     31.01323778	     43.02603954	     62.10588911	    779.68994461	    -40.30029330	     -1.70042083	     43.91343023	     43.18411428	     45.00000000	     10.64491025	  -2288.35564807	  -2270.96452239	    143.38450973	   -179.99999979	   1427.20606165	     66.48476358	     18.34883797	     13.82314023	    -13.87790589	    -45.00000000	    -35.83787442	     45.00000000	    -45.00000000	  -2061.28925724	    435.21601764	     25.58080334	     31.31524012	   1430.14137714	   -315.92799549	     11.51582671	    -16.14522001
      2.24000000	     28.38429206	     31.20212593	     43.17111798	     61.46015554	    779.24944490	    -40.32948788	     -1.67237148	     44.03010280	     43.21728954	     45.00000000	     10.37058382	  -2288.28523968	  -2270.69142734	    143.46898033	   -179.99999979	   1427.27196883	     66.79458924	     18.46784710	     13.95715193	    -14.06956034	    -45.00000000	    -35.97009747	     45.00000000	    -45.00000000	  -2060.90689099	    435.17225442	     25.73517423	     31.12653216	   1430.01200894	   -315.69140514	     11.62432763	    -16.00199804
      2.25000000	     28.45756473	     31.28228751	     43.05028156	     60.71400433	    778.85305659	    -40.37120727	     -1.52176616	     44.01636979	     43.06288012	     45.00000000	     10.02872667	  -2288.11323644	  -2270.69420676	    143.46818045	   -179.99999979	   1427.34254141	     67.15019609	     18.46912382	     13.78301680	    -13.83263965	    -45.00000000	    -35.91549664	     45.00000000	    -45.00000000	  -2061.00460389	    435.23639389	     25.44488834	     30.61861982	   1430.10849462	   -315.48271086	     11.55291917	    -16.20076899
      2.26000000	     28.58789374	     31.25573226	     42.79463607	     59.87325323	    778.49812707	    -40.42446846	     -1.47605810	     44.03487497	     42.83428020	     45.00000000	      9.82376269	  -2287.84418805	  -2270.87599162	    143.60383854	   -179.99999979	   1427.38977638	     67.48887971	     18.49364370	     13.79045218	    -13.92196804	    -45.00000000	    -35.92592829	     45.00000000	    -45.00000000	  -2060.83213249	    435.12739381	     25.50587745	     30.23427395	   1430.20939166	   -315.25442563	     11.48895087	    -16.15074223
      2.27000000	     28.63518823	     31.35734003	     42.73886082	     58.94733404	    778.17972921	    -40.48783305	     -1.39927969	     44.06064476	     42.75681846	     45.00000000	      9.56410238	  -2287.71275927	  -2270.74219464	    143.58898991	   -179.99999979	   1427.35352340	     67.80756488	     18.58932266	     13.75956984	    -13.79262263	    -45.00000000	    -35.77447360	     45.00000000	    -45.00000000	  -2060.88792359	    435.23516736	     25.35767060	     29.86401862	   1430.07452797	   -315.02495645	     11.54997236	    -16.29988660
      2.28000000	     28.71818455	     31.38238296	     42.51615657	     57.93001111	    777.89030358	    -40.56215894	     -1.30292823	     44.06681986	     42.53293073	     45.00000000	      9.29948928	  -2287.50221211	  -2270.83677967	    143.69731065	   -179.99999979	   1427.49464399	     68.14810993	     18.51019057	     13.73770799	    -13.87729019	    -45.00000000	    -36.01963542	     45.00000000	    -45.00000000	  -2060.65311909	    434.96720232	     25.37393934	     29.46287069	   1430.24323180	   -314.78192476	     11.45960606	    -16.16475695
      2.29000000	     28.63670642	     31.49259156	     42.58283370	     56.82795323	    777.62838305	    -40.64488368	     -1.23623865	     44.10004964	     42.55126648	     45.00000000	      8.99725207	  -2287.40291522	  -2270.63568183	    143.71708802	   -179.99999979	   1427.47324249	     68.46209447	     18.73959121	     13.67542422	    -13.68867396	    -45.00000000	    -35.78822274	     45.00000000	    -45.00000000	  -2060.66543030	    435.36091432	     25.18359819	     29.04753360	   1430.15841257	   -314.55459993	     11.50016883	    -16.45117003
